# xmcd
#
# Track frame offsets:
#	150
#	11420
#	23845
#	31290
#	43693
#	55590
#	82163
#	121153
#	142370
#	155223
#	163805
#	180528
#
# Disc length: 3106 seconds
#
# Revision: 0
# Processed by: cddbd v1.5.2PL0 Copyright (c) Steve Scherf et al.
# Submitted via: EasyCDDAExtractor 16.1.0.1
#
DISCID=9f0c200c
DTITLE=Ennio Morricone - Crime And Dissonance 2/2
DYEAR=2005
DGENRE=
TTITLE0=Trafelato
TTITLE1=Sensi
TTITLE2=Gli Intoccabili (Titoli)
TTITLE3=Fondate Paure
TTITLE4=L'Attentato [Alternate Version 1]
TTITLE5=Fumeria D'Oppio
TTITLE6=1970
TTITLE7=Esplicitamente Sospeso
TTITLE8=Sequenza 10
TTITLE9=Paura E Aggressione [Short Version]
TTITLE10=Folle Folle
TTITLE11=Un Uomo Da Rispettare (Titoli)
EXTD=
EXTT0=
EXTT1=
EXTT2=
EXTT3=
EXTT4=
EXTT5=
EXTT6=
EXTT7=
EXTT8=
EXTT9=
EXTT10=
EXTT11=
PLAYORDER=
